# xmcd
#
# Track frame offsets: 
#        150
#        13817
#        38725
#        63508
#        83919
#        105556
#        128786
#        149755
#
# Disc length: 2353 seconds
#
# Revision: 0
# Processed by: cddbd v1.5.2PL0 Copyright (c) Steve Scherf et al.
# Submitted via: ExactAudioCopyFreeDBPlugin 1.0
#
DISCID=6d092f08
DTITLE=Keb' Mo' - Live - That Hot Pink Blues Album [CD 1)
DYEAR=2016
DGENRE=Blues
TTITLE0=Tell Everybody I Know
TTITLE1=Somebody Hurt You
TTITLE2=Henry
TTITLE3=Life Is Beautiful
TTITLE4=She Just Wants To Dance
TTITLE5=The Worst Is Yet To Come
TTITLE6=Government Cheese
TTITLE7=The Door
EXTD=
EXTT0=
EXTT1=
EXTT2=
EXTT3=
EXTT4=
EXTT5=
EXTT6=
EXTT7=
PLAYORDER=
